<svg width="24" height="24" viewBox="0 0 24 24" fill="none" xmlns="http://www.w3.org/2000/svg">
<path d="M19.5 17.1994V17.2V19.5H4.5V17.2C4.5 16.7242 4.6212 16.294 4.86403 15.8987C5.10914 15.4997 5.4285 15.202 5.82671 14.9957C6.82711 14.4957 7.8407 14.122 8.86784 13.8729C9.89574 13.6237 10.9394 13.4994 11.9997 13.5H12C13.0604 13.5 14.1042 13.6246 15.1322 13.8739C16.1593 14.123 17.1729 14.4964 18.1733 14.9957C18.5723 15.2027 18.8919 15.5009 19.137 15.8997C19.3798 16.2949 19.5006 16.7246 19.5 17.1994ZM12 11.5C11.0337 11.5 10.2189 11.1618 9.52855 10.4714C8.83824 9.78113 8.5 8.96634 8.5 8C8.5 7.03366 8.83824 6.21887 9.52855 5.52855C10.2189 4.83824 11.0337 4.5 12 4.5C12.9663 4.5 13.7811 4.83824 14.4714 5.52855C15.1618 6.21887 15.5 7.03366 15.5 8C15.5 8.96634 15.1618 9.78113 14.4714 10.4714C13.7811 11.1618 12.9663 11.5 12 11.5Z" fill="white" stroke="white"/>
</svg>
