<svg width="22" height="21" viewBox="0 0 22 21" fill="none" xmlns="http://www.w3.org/2000/svg">
<path d="M12 12.25C11.7521 12.25 11.5441 12.166 11.3761 11.998C11.2081 11.83 11.1244 11.6223 11.125 11.375C11.125 11.1271 11.209 10.9191 11.377 10.7511C11.545 10.5831 11.7527 10.4994 12 10.5C12.2479 10.5 12.4559 10.584 12.6239 10.752C12.7919 10.92 12.8756 11.1277 12.875 11.375C12.875 11.6229 12.791 11.8309 12.623 11.9989C12.455 12.1669 12.2473 12.2506 12 12.25ZM8.5 12.25C8.25209 12.25 8.04413 12.166 7.87613 11.998C7.70813 11.83 7.62442 11.6223 7.625 11.375C7.625 11.1271 7.709 10.9191 7.877 10.7511C8.045 10.5831 8.25267 10.4994 8.5 10.5C8.74792 10.5 8.95588 10.584 9.12388 10.752C9.29188 10.92 9.37559 11.1277 9.375 11.375C9.375 11.6229 9.291 11.8309 9.123 11.9989C8.955 12.1669 8.74733 12.2506 8.5 12.25ZM15.5 12.25C15.2521 12.25 15.0441 12.166 14.8761 11.998C14.7081 11.83 14.6244 11.6223 14.625 11.375C14.625 11.1271 14.709 10.9191 14.877 10.7511C15.045 10.5831 15.2527 10.4994 15.5 10.5C15.7479 10.5 15.9559 10.584 16.1239 10.752C16.2919 10.92 16.3756 11.1277 16.375 11.375C16.375 11.6229 16.291 11.8309 16.123 11.9989C15.955 12.1669 15.7473 12.2506 15.5 12.25ZM12 15.75C11.7521 15.75 11.5441 15.666 11.3761 15.498C11.2081 15.33 11.1244 15.1223 11.125 14.875C11.125 14.6271 11.209 14.4191 11.377 14.2511C11.545 14.0831 11.7527 13.9994 12 14C12.2479 14 12.4559 14.084 12.6239 14.252C12.7919 14.42 12.8756 14.6277 12.875 14.875C12.875 15.1229 12.791 15.3309 12.623 15.4989C12.455 15.6669 12.2473 15.7506 12 15.75ZM8.5 15.75C8.25209 15.75 8.04413 15.666 7.87613 15.498C7.70813 15.33 7.62442 15.1223 7.625 14.875C7.625 14.6271 7.709 14.4191 7.877 14.2511C8.045 14.0831 8.25267 13.9994 8.5 14C8.74792 14 8.95588 14.084 9.12388 14.252C9.29188 14.42 9.37559 14.6277 9.375 14.875C9.375 15.1229 9.291 15.3309 9.123 15.4989C8.955 15.6669 8.74733 15.7506 8.5 15.75ZM15.5 15.75C15.2521 15.75 15.0441 15.666 14.8761 15.498C14.7081 15.33 14.6244 15.1223 14.625 14.875C14.625 14.6271 14.709 14.4191 14.877 14.2511C15.045 14.0831 15.2527 13.9994 15.5 14C15.7479 14 15.9559 14.084 16.1239 14.252C16.2919 14.42 16.3756 14.6277 16.375 14.875C16.375 15.1229 16.291 15.3309 16.123 15.4989C15.955 15.6669 15.7473 15.7506 15.5 15.75ZM5.875 19.25C5.39375 19.25 4.98163 19.0785 4.63863 18.7355C4.29563 18.3925 4.12442 17.9807 4.125 17.5V5.25C4.125 4.76875 4.2965 4.35662 4.6395 4.01362C4.9825 3.67062 5.39433 3.49942 5.875 3.5H6.75V1.75H8.5V3.5H15.5V1.75H17.25V3.5H18.125C18.6063 3.5 19.0184 3.6715 19.3614 4.0145C19.7044 4.3575 19.8756 4.76933 19.875 5.25V17.5C19.875 17.9813 19.7035 18.3934 19.3605 18.7364C19.0175 19.0794 18.6057 19.2506 18.125 19.25H5.875ZM5.875 17.5H18.125V8.75H5.875V17.5Z" fill="black"/>
</svg>
