<svg width="15" height="17" viewBox="0 0 15 17" fill="none" xmlns="http://www.w3.org/2000/svg">
<path d="M10.7204 10.8812H10.0429L9.80274 10.6359C10.6432 9.60049 11.1492 8.25623 11.1492 6.79388C11.1492 3.53313 8.65352 0.890015 5.57461 0.890015C2.49571 0.890015 0 3.53313 0 6.79388C0 10.0546 2.49571 12.6978 5.57461 12.6978C6.9554 12.6978 8.2247 12.1619 9.2024 11.2717L9.43396 11.5261V12.2436L13.7221 16.776L15 15.4226L10.7204 10.8812ZM5.57461 10.8812C3.43911 10.8812 1.71527 9.05552 1.71527 6.79388C1.71527 4.53225 3.43911 2.70659 5.57461 2.70659C7.71012 2.70659 9.43396 4.53225 9.43396 6.79388C9.43396 9.05552 7.71012 10.8812 5.57461 10.8812Z" fill="#B7B7B7"/>
</svg>
