<svg width="15" height="12" viewBox="0 0 15 12" fill="none" xmlns="http://www.w3.org/2000/svg">
<path d="M1.5 12C1.0875 12 0.734251 11.853 0.440251 11.559C0.146251 11.265 -0.000498727 10.912 1.27334e-06 10.5V1.5C1.27334e-06 1.0875 0.147001 0.734251 0.441001 0.440251C0.735001 0.146251 1.088 -0.000498727 1.5 1.27334e-06H6L7.5 1.5H13.5C13.9125 1.5 14.2657 1.647 14.5597 1.941C14.8537 2.235 15.0005 2.588 15 3V10.5C15 10.9125 14.853 11.2657 14.559 11.5597C14.265 11.8537 13.912 12.0005 13.5 12H1.5Z" fill="#0045AC"/>
</svg>
