<svg width="24" height="24" viewBox="0 0 24 24" fill="none" xmlns="http://www.w3.org/2000/svg">
<path d="M2.75 18.9998C2.74929 19.6162 2.97179 20.1503 3.41022 20.5888C3.84869 21.0272 4.38311 21.25 5 21.25L19 21L18.9997 21.25C19.6161 21.2507 20.1503 21.0283 20.5888 20.5898C21.0272 20.1513 21.25 19.6169 21.25 19V5.00031M2.75 18.9998C2.75 18.9998 2.75 18.9997 2.75 18.9997L3 19H2.75V18.9998ZM2.75 18.9998V5C2.75 4.38311 2.97276 3.84869 3.41123 3.41022C3.84966 2.97179 4.38379 2.74929 5.00015 2.75M5.00015 2.75C5.0002 2.75 5.00025 2.75 5.00031 2.75L5 3V2.75H5.00015ZM5.00015 2.75H19C19.6169 2.75 20.1513 2.97276 20.5898 3.41123C21.0283 3.8497 21.2507 4.38388 21.25 5.00031M21.25 5.00031L21 5H21.25V5.00031ZM6.75 17V17.25H7H9H9.25V17V10V9.75H9H7H6.75V10V17ZM10.75 17V17.25H11H13H13.25V17V7V6.75H13H11H10.75V7V17ZM14.75 17V17.25H15H17H17.25V17V13V12.75H17H15H14.75V13V17ZM18.75 5.25V18.75H5.25V5.25H18.75Z" fill="white" stroke="white" stroke-width="0.5"/>
</svg>
