<svg width="24" height="24" viewBox="0 0 24 24" fill="none" xmlns="http://www.w3.org/2000/svg">
<path d="M18.625 9.5V2.85C18.625 2.72402 18.575 2.6032 18.4859 2.51412C18.3968 2.42504 18.276 2.375 18.15 2.375H11.5M18.625 9.5H11.5M18.625 9.5V16.15C18.625 16.276 18.575 16.3968 18.4859 16.4859C18.3968 16.575 18.276 16.625 18.15 16.625H11.5M11.5 9.5V2.375M11.5 9.5V16.625M11.5 9.5H4.375M11.5 2.375H4.85C4.72402 2.375 4.6032 2.42504 4.51412 2.51412C4.42504 2.6032 4.375 2.72402 4.375 2.85V9.5M11.5 16.625H4.85C4.72402 16.625 4.6032 16.575 4.51412 16.4859C4.42504 16.3968 4.375 16.276 4.375 16.15V9.5" stroke="white" stroke-width="1.5"/>
</svg>
