<svg width="21" height="21" viewBox="0 0 21 21" fill="none" xmlns="http://www.w3.org/2000/svg">
<path d="M10.5 12.25C10.2521 12.25 10.0441 12.166 9.87613 11.998C9.70813 11.83 9.62442 11.6223 9.625 11.375C9.625 11.1271 9.709 10.9191 9.877 10.7511C10.045 10.5831 10.2527 10.4994 10.5 10.5C10.7479 10.5 10.9559 10.584 11.1239 10.752C11.2919 10.92 11.3756 11.1277 11.375 11.375C11.375 11.6229 11.291 11.8309 11.123 11.9989C10.955 12.1669 10.7473 12.2506 10.5 12.25ZM7 12.25C6.75209 12.25 6.54413 12.166 6.37613 11.998C6.20813 11.83 6.12442 11.6223 6.125 11.375C6.125 11.1271 6.209 10.9191 6.377 10.7511C6.545 10.5831 6.75267 10.4994 7 10.5C7.24792 10.5 7.45588 10.584 7.62388 10.752C7.79188 10.92 7.87559 11.1277 7.875 11.375C7.875 11.6229 7.791 11.8309 7.623 11.9989C7.455 12.1669 7.24733 12.2506 7 12.25ZM14 12.25C13.7521 12.25 13.5441 12.166 13.3761 11.998C13.2081 11.83 13.1244 11.6223 13.125 11.375C13.125 11.1271 13.209 10.9191 13.377 10.7511C13.545 10.5831 13.7527 10.4994 14 10.5C14.2479 10.5 14.4559 10.584 14.6239 10.752C14.7919 10.92 14.8756 11.1277 14.875 11.375C14.875 11.6229 14.791 11.8309 14.623 11.9989C14.455 12.1669 14.2473 12.2506 14 12.25ZM10.5 15.75C10.2521 15.75 10.0441 15.666 9.87613 15.498C9.70813 15.33 9.62442 15.1223 9.625 14.875C9.625 14.6271 9.709 14.4191 9.877 14.2511C10.045 14.0831 10.2527 13.9994 10.5 14C10.7479 14 10.9559 14.084 11.1239 14.252C11.2919 14.42 11.3756 14.6277 11.375 14.875C11.375 15.1229 11.291 15.3309 11.123 15.4989C10.955 15.6669 10.7473 15.7506 10.5 15.75ZM7 15.75C6.75209 15.75 6.54413 15.666 6.37613 15.498C6.20813 15.33 6.12442 15.1223 6.125 14.875C6.125 14.6271 6.209 14.4191 6.377 14.2511C6.545 14.0831 6.75267 13.9994 7 14C7.24792 14 7.45588 14.084 7.62388 14.252C7.79188 14.42 7.87559 14.6277 7.875 14.875C7.875 15.1229 7.791 15.3309 7.623 15.4989C7.455 15.6669 7.24733 15.7506 7 15.75ZM14 15.75C13.7521 15.75 13.5441 15.666 13.3761 15.498C13.2081 15.33 13.1244 15.1223 13.125 14.875C13.125 14.6271 13.209 14.4191 13.377 14.2511C13.545 14.0831 13.7527 13.9994 14 14C14.2479 14 14.4559 14.084 14.6239 14.252C14.7919 14.42 14.8756 14.6277 14.875 14.875C14.875 15.1229 14.791 15.3309 14.623 15.4989C14.455 15.6669 14.2473 15.7506 14 15.75ZM4.375 19.25C3.89375 19.25 3.48163 19.0785 3.13863 18.7355C2.79563 18.3925 2.62442 17.9807 2.625 17.5V5.25C2.625 4.76875 2.7965 4.35662 3.1395 4.01362C3.4825 3.67062 3.89433 3.49942 4.375 3.5H5.25V1.75H7V3.5H14V1.75H15.75V3.5H16.625C17.1063 3.5 17.5184 3.6715 17.8614 4.0145C18.2044 4.3575 18.3756 4.76933 18.375 5.25V17.5C18.375 17.9813 18.2035 18.3934 17.8605 18.7364C17.5175 19.0794 17.1057 19.2506 16.625 19.25H4.375ZM4.375 17.5H16.625V8.75H4.375V17.5Z" fill="black"/>
</svg>
