<svg width="17" height="23" viewBox="0 0 17 23" fill="none" xmlns="http://www.w3.org/2000/svg">
<path d="M8.5 22.9532C9.66875 22.9532 10.625 21.9267 10.625 20.6721H6.375C6.375 21.9267 7.33125 22.9532 8.5 22.9532ZM14.875 16.11V10.4073C14.875 6.9059 13.1431 3.97474 10.0938 3.19918V2.42362C10.0938 1.47698 9.38188 0.71283 8.5 0.71283C7.61812 0.71283 6.90625 1.47698 6.90625 2.42362V3.19918C3.8675 3.97474 2.125 6.8945 2.125 10.4073V16.11L0 18.391V19.5316H17V18.391L14.875 16.11ZM12.75 17.2505H4.25V10.4073C4.25 7.57882 5.85437 5.27495 8.5 5.27495C11.1456 5.27495 12.75 7.57882 12.75 10.4073V17.2505Z" fill="#434343"/>
</svg>
