<svg width="17" height="23" viewBox="0 0 17 23" fill="none" xmlns="http://www.w3.org/2000/svg">
<path d="M8.5 22.9532C9.66875 22.9532 10.625 21.9267 10.625 20.6722H6.375C6.375 21.9267 7.33125 22.9532 8.5 22.9532ZM14.875 16.11V10.4074C14.875 6.90597 13.1431 3.9748 10.0938 3.19924V2.42368C10.0938 1.47705 9.38188 0.712891 8.5 0.712891C7.61812 0.712891 6.90625 1.47705 6.90625 2.42368V3.19924C3.8675 3.9748 2.125 6.89456 2.125 10.4074V16.11L0 18.3911V19.5316H17V18.3911L14.875 16.11ZM12.75 17.2506H4.25V10.4074C4.25 7.57888 5.85437 5.27501 8.5 5.27501C11.1456 5.27501 12.75 7.57888 12.75 10.4074V17.2506Z" fill="#434343"/>
</svg>
